# xmcd CD database file
#
# Track frame offsets:
#	150
#	16860
#	28682
#	41525
#	49925
#	63192
#	74900
#	88437
#	99870
#	111212
#	123542
#	137425
#	149015
#	165480
#	175985
#	188632
#	198110
#	207310
#	220857
#	231432
#
# Disc length: 3225 seconds
#
# Revision: 0
# Processed by: cddbd v1.4PL0 Copyright (c) Steve Scherf et al.
# Submitted via: Feurio! 1.60.2ß - http://www.feurio.com
#
DISCID=280c9714
DTITLE=Johnny Cash - La Legende Country
DYEAR=1998
DGENRE=Country
TTITLE0=The city of New Orleans
TTITLE1=Ring of fire
TTITLE2=Man in black
TTITLE3=The rebel Johnny Yuma
TTITLE4=If I were a carpenter
TTITLE5=Girl from the canyon
TTITLE6=It ain't me babe
TTITLE7=I walk the line
TTITLE8=A thing called love
TTITLE9=Jackson
TTITLE10=Orange Blossom Special
TTITLE11=Folsom Prison Blues
TTITLE12=Riders in the sky
TTITLE13=Custer
TTITLE14=Remember the Alamo
TTITLE15=Waiting for a train
TTITLE16=Oh, what a dream
TTITLE17=Oney
TTITLE18=San Quentin (live)
TTITLE19=Bonanza!
EXTD=
EXTT0=
EXTT1=
EXTT2=
EXTT3=
EXTT4=
EXTT5=
EXTT6=
EXTT7=
EXTT8=
EXTT9=
EXTT10=
EXTT11=
EXTT12=
EXTT13=
EXTT14=
EXTT15=
EXTT16=
EXTT17=
EXTT18=
EXTT19=
PLAYORDER=
